<?xml version="1.0" encoding="UTF-8"?>
<svg width="752pt" height="752pt" version="1.1" viewBox="0 0 752 752" xmlns="http://www.w3.org/2000/svg">
 <path d="m498.18 190.36-122.18 122.18-122.18-122.18c-9.4727-9.4727-24.152-9.4727-33.625 0l-26.992 26.992c-9.4727 9.4727-9.4727 24.152 0 33.625l122.18 122.18-121.71 121.71c-9.4727 9.4727-9.4727 24.152 0 33.625l26.992 26.992c9.4727 9.4727 24.152 9.4727 33.625 0l121.71-122.66 122.18 122.18c9.4727 9.4727 24.152 9.4727 33.625 0l26.992-26.992c9.4727-9.4727 9.4727-24.152 0-33.625l-122.66-121.71 122.18-122.18c9.4727-9.4727 9.4727-24.152 0-33.625l-26.992-26.992c-8.9961-9-24.152-9-33.152 0.47266z" fill="#fff"/>
</svg>
